<?xml version="1.0" encoding="utf-8"?>
<!-- Generator: Adobe Illustrator 24.3.0, SVG Export Plug-In . SVG Version: 6.00 Build 0)  -->
<svg version="1.1" id="Capa_1" xmlns="http://www.w3.org/2000/svg" xmlns:xlink="http://www.w3.org/1999/xlink" x="0px" y="0px"
	 viewBox="0 0 446.6 311.1" style="enable-background:new 0 0 446.6 311.1;" xml:space="preserve">
<style type="text/css">
	.st0{fill:none;stroke:#000000;stroke-width:3.29;stroke-miterlimit:10;}
	.st1{fill:#F8AD50;}
	.st2{fill:#626262;}
	.st3{fill:#E52722;stroke:#000000;stroke-width:3.29;stroke-miterlimit:10;}
</style>
<path class="st0" d="M181.8,25.9c0.6,3.4-0.3,5.8-2.9,8.1c-1.8,1.6-2.5,4.6-3.2,7c-8.5,27.3-17,54.6-25.2,82
	c-0.9,3.5-0.7,7.2,0.5,10.6c2.3,6.5,2.1,12.4-1,18.4c-9.3,18.1-18.5,36.2-27.9,54.2c-8.2,15.8-16.6,31.6-24.8,47.4
	c-3.5,6.6-5.8,13.8-6.8,21.3c-0.7,4.2-2.1,8.3-4,12.2c-2.5,5.7-5.5,11.1-8.9,16.4c-3.6,5.3-10.3,7.4-16.4,5.2
	c-18.3-6.4-35.9-14.9-52.3-25.2c-7.3-4.5-8.9-11.3-5.5-19.3c1.3-3,2.7-6,3.9-9.1c2.7-7,6.2-13.3,11.8-18.5
	c7.1-6.7,10.1-15.9,13.8-24.4c10.5-24.2,20.6-48.5,30.8-72.8c3.1-7.3,6-14.7,8.9-22.1c2.7-6.9,7.4-11.7,14.7-13.4
	c4.5-1.1,7.1-4.2,9.4-7.8c15.6-24.2,31.3-48.3,46.9-72.6c1.5-2.3,1.8-5.2,2.8-7.8c0.6-1.3,1.4-2.5,2.4-3.5c1-1,1.9-1.5,0.6-3.3
	c-1.5-1.9,1.6-6.5,4.6-7c1.2-0.3,2.5-0.2,3.7,0.2c8.8,4.1,17.7,8.2,26.3,12.7c3.7,2,4.2,4.8,2.3,8.4c-0.7,1.3-2.2,2.2-3.4,3.2
	L181.8,25.9z"/>
<path d="M315.7,187.2c-9.5-30.7-18.9-61.5-28.7-92.1c-2.5-7.2-3.2-14.9-2.2-22.4c0.4-2.8,1-5.5-1.5-8.2c-1.8-2-1.2-5.2,1.4-7.3
	c3.6-2.9,7.3-5.9,11.5-7.5c12.9-5,26.1-9.3,39.1-13.9c1.5-0.5,2.9-1.4,4.1-2.4c3.3-3,6.8-5.8,11.3-6.4c2.5-0.5,5,0.7,6.1,3
	c0.3,0.6,1.4,0.8,2.1,0.9c3.1,0.2,6.3-0.1,9.3,0.4c4,0.7,5.1,3,4.4,7.3c-0.1,0.9,0.1,1.9,0.7,2.7c7.7,7.6,11.8,17.2,15,27.8
	c18.9,61.8,38,123.5,57.4,185.1c1.4,4.6,0.8,8-2.1,10.8c-1.8,1.7-2.6,4.1-2.2,6.5c0.6,3.7-1,7.5-4.1,9.6c-3.6,2.5-7.4,4.8-11.3,6.7
	c-16.5,8.2-34.3,13.2-52.6,14.9c-2.2,0.2-4.5,0.2-6.8,0c-3.5-0.2-6.6-2.2-8.1-5.4c-1-2.2-3-3.8-5.4-4.3c-3.6-0.7-5.7-3.1-7-7.2
	C336.2,252.9,325.9,220.1,315.7,187.2z M288.9,69c-0.9,8-1.4,15.8,1.2,24.2c20,63.6,39.8,127.2,59.3,191c1,3.3,2.7,5.2,5.6,5.3
	c7.3,0.3,14.6,1,21.8,0.4c15.3-1.3,29.5-6.7,43.4-12.9c7.8-3.5,15.1-8,21-14.7c1.8-2.1,2.3-4,1.3-7.1c-20-64-39.8-128-59.5-192.1
	c-2.5-8.1-7.5-13.7-12.3-19.4C345.5,57.8,317.6,66.5,288.9,69z M334.9,39.2c-1,0.2-1.7,0.3-2.3,0.5c-8.6,2.9-17.2,5.4-25.7,8.6
	c-5.7,2.3-11.3,5-16.7,8.1c-1.7,1-3.2,2.4-4.3,4.1c-1.3,1.8-0.5,3.6,1.7,3.8c1.8,0.3,3.6,0.4,5.5,0.2c8.4-1.4,16.9-2.5,25.1-4.5
	c15.5-3.6,30.5-9.1,44.6-16.6c2.4-1.3,4.6-2.9,6.6-4.7c1.8-1.6,1.4-4.1-0.6-4.3c-3.6-0.3-7.2-0.5-10.9-0.4c-0.3,0.1-0.6,0.3-0.8,0.6
	c-1.2,2.3-2.3,4.7-3.5,7l0.5,0.8l10.9-6.1c-1.7,3.7-4.6,5.9-7.7,7.6c-17.7,9.8-37.2,15.8-57.3,17.7c-3.3,0.3-6.8-0.2-10.2-0.3l0-1
	c1-0.1,2-0.1,3-0.2c1.8-0.2,3.5-0.5,5.3-1.1c9.5-3.9,18.9-8.4,28.6-11.8C330.5,45.9,332.9,43.5,334.9,39.2L334.9,39.2z M344,48.1
	c1.4-1,2.9-1.4,3.6-2.5c2.2-3.4,4.3-6.9,6.1-10.6c0.6-1.1,0.8-3.3,0.2-4.1s-2.6-1.1-3.8-0.8c-4.3,1.1-8,3.7-10.4,7.4
	c-2.6,3.6-4.9,7.5-7.3,11.4c-0.6,1.3-1.1,2.7-1.5,4.1l8.8-3.3l-0.2-0.6l-4.7-0.3l-0.4-0.9c1.7-1.8,3.4-3.6,5.3-5.3
	c1.5-1.2,3.5-2.6,5.1-0.7c0.6,0.8-0.5,3.3-0.8,5C344.1,47.1,344.1,47.2,344,48.1L344,48.1z"/>
<path class="st1" d="M334.9,39.2c-2,4.3-4.4,6.7-8.5,8.2c-9.7,3.4-19,7.9-28.6,11.8c-1.7,0.5-3.5,0.9-5.3,1.1c-1,0.2-2,0.2-3,0.2
	l0,1c3.4,0.1,6.8,0.6,10.2,0.3c20.1-1.9,39.6-7.9,57.3-17.7c3.1-1.7,6-3.9,7.7-7.6L354,42.5l-0.5-0.8c1.2-2.3,2.3-4.7,3.5-7
	c0.2-0.3,0.4-0.5,0.8-0.6c3.6-0.1,7.3,0,10.9,0.4c2,0.3,2.4,2.8,0.6,4.3c-2,1.8-4.2,3.4-6.5,4.7c-14.1,7.4-29.1,13-44.7,16.6
	c-8.3,2-16.7,3.1-25.1,4.5c-1.8,0.2-3.7,0.1-5.5-0.2c-2.1-0.3-3-2-1.7-3.8c1.1-1.7,2.6-3.1,4.3-4.1c5.4-3,11-5.7,16.7-8.1
	c8.4-3.2,17.1-5.8,25.7-8.6C333.2,39.5,333.9,39.4,334.9,39.2z"/>
<path class="st1" d="M435.6,276.2c-21.4,13.3-44.1,22.3-69.9,20.9c12.2-1.4,24.4-3,36-7.1S424.3,280.9,435.6,276.2z"/>
<path class="st1" d="M344,48.1c0-0.8,0-0.9,0-1c0.3-1.7,1.4-4.2,0.8-5c-1.6-1.9-3.6-0.6-5.1,0.7c-1.9,1.7-3.6,3.4-5.3,5.3l0.4,0.9
	l4.7,0.3l0.2,0.6l-8.8,3.3c0.4-1.4,0.9-2.8,1.5-4.1c2.3-3.8,4.7-7.8,7.3-11.4c2.5-3.7,6.2-6.3,10.4-7.4c1.2-0.3,3.1,0,3.8,0.8
	c0.6,0.8,0.3,3-0.2,4.1c-1.8,3.6-3.9,7.1-6.1,10.5C346.9,46.7,345.5,47.1,344,48.1z M340.8,39.1c4-0.1,7.6-0.2,10.3-3.2
	c1-1.2,1.2-2.4-0.8-2.9C347.5,32.2,342,35.5,340.8,39.1L340.8,39.1z"/>
<path d="M340.8,39.1c1.1-3.6,6.7-6.8,9.5-6.1c1.9,0.5,1.8,1.7,0.8,2.9C348.4,38.9,344.8,39,340.8,39.1z"/>
<path class="st2" d="M230.9,159.8"/>
<path class="st3" d="M201.9,129.5h4l0.8,0.2c2,0.4,4,0.8,6,1.4c5.3,1.8,9.9,5.2,13.2,9.6c1,1.2,1.8,2.5,2.8,3.8
	c0.1-0.2,0.2-0.4,0.3-0.5c1.8-2.9,4.1-5.6,6.7-7.8c3.5-3,7.6-5.1,12.1-6c1.1-0.2,2.3-0.4,3.4-0.6h4c0.2,0.1,0.5,0.1,0.8,0.1
	c3.3,0.3,6.5,1.2,9.4,2.7c7.4,3.6,12.6,10.7,13.8,18.8c0.2,1,0.3,2,0.5,3v4.8c-0.1,0.3-0.1,0.5-0.1,0.8c-0.2,2-0.4,4.1-0.7,6.1
	c-0.6,3.9-1.8,7.7-3.6,11.2c-2.6,4.8-6,9.2-10,12.9c-4.5,4.3-9.2,8.4-13.9,12.6c-6.3,5.6-12.7,11.2-19,16.8
	c-1.3,1.2-2.6,2.5-3.9,3.7h-0.1c-0.2-0.2-0.3-0.4-0.5-0.6c-8.8-8-17.7-15.9-26.6-23.8c-4.2-3.7-8.3-7.4-12.1-11.5
	c-6.3-6.8-10.4-14.5-11.3-23.8c-0.1-1.3-0.3-2.6-0.4-3.9V154c0-0.2,0.1-0.4,0.1-0.7c0.3-3.8,1.5-7.5,3.4-10.8
	c3.6-6.4,9.9-10.9,17.1-12.3C199.3,129.9,200.6,129.8,201.9,129.5z"/>
<ellipse transform="matrix(0.4682 -0.8836 0.8836 0.4682 -113.3207 175.6155)" class="st0" cx="89.2" cy="182" rx="53.8" ry="29.2"/>
</svg>
