<svg id="Capa_1" data-name="Capa 1" xmlns="http://www.w3.org/2000/svg" viewBox="0 0 446.63 311.08"><defs><style>.cls-1{fill:none;}.cls-1,.cls-5{stroke:#000;stroke-miterlimit:10;stroke-width:3.29px;}.cls-2{fill:#fff;}.cls-3{fill:#5f5f5f;}.cls-4{fill:#626262;}.cls-5{fill:#e52722;}</style></defs><path class="cls-1" d="M309.45,70.33c.65,3.38-.34,5.78-2.93,8.11-1.77,1.59-2.46,4.56-3.24,7-8.49,27.3-17,54.6-25.2,82a18.19,18.19,0,0,0,.53,10.57c2.29,6.46,2.13,12.38-1,18.41-9.32,18.06-18.53,36.19-27.88,54.24-8.2,15.82-16.57,31.56-24.81,47.36a63.52,63.52,0,0,0-6.77,21.29,42.47,42.47,0,0,1-4,12.16,120.39,120.39,0,0,1-8.93,16.36,14,14,0,0,1-16.35,5.21,259.64,259.64,0,0,1-52.34-25.22c-7.28-4.5-8.87-11.27-5.47-19.26,1.29-3,2.71-6,3.88-9.09,2.66-7,6.23-13.3,11.75-18.49,7.11-6.69,10.11-15.85,13.84-24.44,10.48-24.17,20.61-48.49,30.81-72.77,3.07-7.33,6-14.74,8.89-22.13,2.73-6.87,7.4-11.67,14.7-13.44,4.49-1.08,7.12-4.16,9.45-7.76C240,116.27,255.7,92.1,271.24,67.82c1.45-2.27,1.76-5.23,2.83-7.78a11.87,11.87,0,0,1,2.41-3.48c1-1,1.92-1.53.6-3.27-1.47-1.92,1.65-6.55,4.58-7a6.62,6.62,0,0,1,3.68.2c8.83,4.12,17.71,8.16,26.32,12.7,3.7,2,4.17,4.77,2.29,8.41-.67,1.3-2.22,2.15-3.37,3.21Z" transform="translate(-127.67 -44.46)"/><path d="M443.4,231.66c-9.53-30.72-18.91-61.48-28.7-92.11a49.36,49.36,0,0,1-2.2-22.42c.4-2.82.95-5.48-1.47-8.23-1.75-2-1.16-5.24,1.37-7.26,3.57-2.87,7.29-5.89,11.45-7.48,12.91-5,26.07-9.26,39.11-13.89a12.47,12.47,0,0,0,4.12-2.43c3.34-3,6.75-5.85,11.31-6.44a5.56,5.56,0,0,1,6.14,3c.31.56,1.41.84,2.14.88,3.12.2,6.26-.09,9.34.45,4,.69,5.13,3,4.41,7.31a3.63,3.63,0,0,0,.72,2.66c7.71,7.64,11.79,17.2,15,27.78q28.32,92.68,57.39,185.14c1.44,4.62.8,7.95-2.09,10.76a7.32,7.32,0,0,0-2.22,6.52,9.63,9.63,0,0,1-4.11,9.63,88.25,88.25,0,0,1-11.35,6.7,147,147,0,0,1-52.63,14.87,40.05,40.05,0,0,1-6.75,0,9.47,9.47,0,0,1-8.13-5.37,7.48,7.48,0,0,0-5.4-4.32c-3.58-.7-5.73-3.11-7-7.19C463.83,297.34,453.59,264.51,443.4,231.66ZM416.56,113.48c-.93,8-1.43,15.75,1.23,24.21q30,95.37,59.31,191c1,3.33,2.69,5.16,5.57,5.29,7.28.33,14.63,1.05,21.8.43,15.29-1.33,29.5-6.67,43.36-12.91,7.82-3.52,15.08-8,21-14.71,1.81-2.08,2.3-4,1.34-7.11q-29.94-96-59.54-192.11c-2.49-8.14-7.49-13.67-12.26-19.42A203.6,203.6,0,0,1,416.56,113.48Zm46-29.85c-1,.22-1.71.3-2.34.5C451.66,87,443,89.52,434.56,92.74a149.41,149.41,0,0,0-16.72,8.08,13.5,13.5,0,0,0-4.34,4.12c-1.29,1.8-.45,3.55,1.7,3.84a18.91,18.91,0,0,0,5.45.22c8.4-1.38,16.87-2.53,25.13-4.51a184.09,184.09,0,0,0,44.65-16.56A34.54,34.54,0,0,0,497,83.26c1.79-1.59,1.4-4.09-.61-4.35a93.76,93.76,0,0,0-10.86-.36,1.06,1.06,0,0,0-.79.57c-1.2,2.32-2.35,4.67-3.52,7l.48.81,10.91-6.11c-1.69,3.7-4.6,5.87-7.73,7.6a146.34,146.34,0,0,1-57.32,17.72c-3.33.32-6.78-.18-10.17-.3l-.05-1c1-.08,2-.08,3-.24a24.09,24.09,0,0,0,5.25-1.06c9.53-3.92,18.88-8.38,28.58-11.81C458.16,90.35,460.61,88,462.58,83.63Zm9.13,8.9c1.44-1,2.9-1.41,3.61-2.49a111.29,111.29,0,0,0,6.13-10.56c.57-1.12.83-3.32.23-4.12s-2.6-1.11-3.78-.82a18.1,18.1,0,0,0-10.44,7.4c-2.62,3.62-4.93,7.52-7.28,11.37a25.2,25.2,0,0,0-1.53,4.1l8.78-3.26-.19-.58-4.69-.26-.41-.91a70.77,70.77,0,0,1,5.29-5.25c1.46-1.2,3.5-2.59,5.08-.65.64.79-.46,3.28-.76,5C471.74,91.59,471.74,91.68,471.71,92.53Z" transform="translate(-127.67 -44.46)"/><path class="cls-2" d="M462.58,83.63c-2,4.32-4.42,6.72-8.46,8.15-9.7,3.43-19.05,7.89-28.58,11.81a24.09,24.09,0,0,1-5.25,1.06c-1,.16-2,.16-3,.24l.05,1c3.39.12,6.84.62,10.17.3a146.34,146.34,0,0,0,57.32-17.72c3.13-1.73,6-3.9,7.73-7.6l-10.91,6.11-.48-.81c1.17-2.34,2.32-4.69,3.52-7a1.06,1.06,0,0,1,.79-.57,93.76,93.76,0,0,1,10.86.36c2,.26,2.4,2.76.61,4.35a34.54,34.54,0,0,1-6.54,4.67,184.09,184.09,0,0,1-44.65,16.56c-8.26,2-16.73,3.13-25.13,4.51a18.91,18.91,0,0,1-5.45-.22c-2.15-.29-3-2-1.7-3.84a13.5,13.5,0,0,1,4.34-4.12,149.41,149.41,0,0,1,16.72-8.08c8.44-3.22,17.1-5.78,25.68-8.61C460.87,83.93,461.55,83.85,462.58,83.63Z" transform="translate(-127.67 -44.46)"/><path class="cls-2" d="M563.31,320.7c-21.42,13.26-44.1,22.27-69.9,20.92,12.2-1.37,24.42-3,36-7.12S552,325.34,563.31,320.7Z" transform="translate(-127.67 -44.46)"/><path class="cls-2" d="M471.71,92.53c0-.85,0-.94,0-1,.3-1.73,1.4-4.22.76-5-1.58-1.94-3.62-.55-5.08.65a70.77,70.77,0,0,0-5.29,5.25l.41.91,4.69.26.19.58-8.78,3.26a25.2,25.2,0,0,1,1.53-4.1c2.35-3.85,4.66-7.75,7.28-11.37a18.1,18.1,0,0,1,10.44-7.4c1.18-.29,3.13,0,3.78.82s.34,3-.23,4.12A111.29,111.29,0,0,1,475.32,90C474.61,91.12,473.15,91.58,471.71,92.53Zm-3.21-9c4-.11,7.61-.15,10.3-3.19,1-1.15,1.18-2.36-.75-2.88C475.17,76.69,469.64,80,468.5,83.54Z" transform="translate(-127.67 -44.46)"/><path class="cls-3" d="M468.5,83.54c1.14-3.56,6.67-6.85,9.55-6.07,1.93.52,1.77,1.73.75,2.88C476.11,83.39,472.48,83.43,468.5,83.54Z" transform="translate(-127.67 -44.46)"/><path class="cls-4" d="M358.53,204.28" transform="translate(-127.67 -44.46)"/><path class="cls-5" d="M329.59,174h4.05l.75.16a59.27,59.27,0,0,1,6,1.38,28.32,28.32,0,0,1,13.23,9.59c1,1.21,1.83,2.5,2.76,3.79.12-.18.24-.35.34-.52a33.25,33.25,0,0,1,6.73-7.8,26.87,26.87,0,0,1,12.13-6c1.14-.22,2.29-.41,3.43-.61H383a6.58,6.58,0,0,0,.75.14,26,26,0,0,1,9.42,2.7A25.28,25.28,0,0,1,407,195.66c.18,1,.31,2,.47,3v4.83a6.36,6.36,0,0,0-.14.76c-.23,2-.38,4.08-.67,6.1a35.34,35.34,0,0,1-3.63,11.18,48.36,48.36,0,0,1-10,12.85c-4.54,4.29-9.23,8.42-13.89,12.58-6.31,5.63-12.66,11.21-19,16.84-1.33,1.19-2.57,2.48-3.85,3.72h-.15a6.91,6.91,0,0,0-.51-.57Q342.37,255,329,243.13c-4.17-3.7-8.33-7.41-12.15-11.49-6.33-6.75-10.38-14.55-11.33-23.84-.13-1.29-.27-2.57-.4-3.86v-5.45c0-.23.11-.45.14-.68a25.89,25.89,0,0,1,3.39-10.8,25.2,25.2,0,0,1,17.11-12.33C327,174.4,328.31,174.24,329.59,174Z" transform="translate(-127.67 -44.46)"/><ellipse class="cls-1" cx="216.92" cy="226.42" rx="53.77" ry="29.17" transform="translate(-212.39 267.61) rotate(-62.08)"/></svg>